<?xml version="1.0" encoding="utf-8"?>
<!-- Generator: Adobe Illustrator 24.3.0, SVG Export Plug-In . SVG Version: 6.00 Build 0)  -->
<svg version="1.1" id="Layer_1" xmlns="http://www.w3.org/2000/svg" xmlns:xlink="http://www.w3.org/1999/xlink" x="0px" y="0px"
	 viewBox="0 0 82.72 82.72" style="enable-background:new 0 0 82.72 82.72;" xml:space="preserve">
<style type="text/css">
	.st0{fill:#FFFFFF;}
	.st1{fill:none;stroke:#000000;stroke-width:1.875;stroke-miterlimit:10;}
	.st2{fill:none;stroke:#000000;stroke-width:2.216;stroke-miterlimit:10;}
</style>
<circle class="st0" cx="41.36" cy="41.36" r="40.76"/>
<path d="M56.9,26.95c-0.71,0-1.39-0.3-1.91-0.79c-0.22-0.26-0.41-0.56-0.56-0.86c-0.15-0.34-0.22-0.67-0.22-1.01
	c0-0.71,0.3-1.39,0.79-1.91c1.01-0.97,2.81-0.97,3.82,0c0.49,0.52,0.79,1.2,0.79,1.91c0,0.34-0.07,0.71-0.22,1.01
	c-0.15,0.34-0.34,0.6-0.56,0.9C58.28,26.65,57.57,26.95,56.9,26.95z"/>
<path class="st1" d="M54.05,66.62H28.12c-6.78,0-12.25-5.51-12.25-12.25V28.41c0-6.78,5.51-12.25,12.25-12.25h25.92
	c6.78,0,12.25,5.51,12.25,12.25v25.92C66.34,61.12,60.83,66.62,54.05,66.62z"/>
<circle class="st2" cx="41.09" cy="41.37" r="10.86"/>
</svg>
