<?xml version="1.0" encoding="utf-8"?>
<!-- Generator: Adobe Illustrator 24.3.0, SVG Export Plug-In . SVG Version: 6.00 Build 0)  -->
<svg version="1.1" id="Layer_1" xmlns="http://www.w3.org/2000/svg" xmlns:xlink="http://www.w3.org/1999/xlink" x="0px" y="0px"
	 viewBox="0 0 612 792" style="enable-background:new 0 0 612 792;" xml:space="preserve">
<style type="text/css">
	.st0{fill:#FFFFFF;}
</style>
<path class="st0" d="M473.94,156.51H120.8c-29.26,0-52.97-23.72-52.97-52.97v0c0-29.26,23.72-52.97,52.97-52.97h353.14
	c29.26,0,52.97,23.72,52.97,52.97v0C526.91,132.8,503.2,156.51,473.94,156.51z"/>
<path class="st0" d="M473.94,350.74H120.8c-29.26,0-52.97-23.72-52.97-52.97v0c0-29.26,23.72-52.97,52.97-52.97h353.14
	c29.26,0,52.97,23.72,52.97,52.97v0C526.91,327.02,503.2,350.74,473.94,350.74z"/>
<path class="st0" d="M473.94,544.97H120.8c-29.26,0-52.97-23.72-52.97-52.97v0c0-29.26,23.72-52.97,52.97-52.97h353.14
	c29.26,0,52.97,23.72,52.97,52.97v0C526.91,521.25,503.2,544.97,473.94,544.97z"/>
<path class="st0" d="M473.94,739.19H120.8c-29.26,0-52.97-23.72-52.97-52.97v0c0-29.26,23.72-52.97,52.97-52.97h353.14
	c29.26,0,52.97,23.72,52.97,52.97v0C526.91,715.48,503.2,739.19,473.94,739.19z"/>
</svg>
