<?xml version="1.0" encoding="utf-8"?>
<!-- Generator: Adobe Illustrator 24.3.0, SVG Export Plug-In . SVG Version: 6.00 Build 0)  -->
<svg version="1.1" id="Layer_1" xmlns="http://www.w3.org/2000/svg" xmlns:xlink="http://www.w3.org/1999/xlink" x="0px" y="0px"
	 viewBox="0 0 612 821.97" style="enable-background:new 0 0 612 821.97;" xml:space="preserve">
<style type="text/css">
	.st0{fill:url(#SVGID_1_);}
	.st1{fill:none;stroke:#010101;stroke-width:1.9965;stroke-miterlimit:10;}
	.st2{fill:#010101;}
	.st3{fill:#C1531B;}
	.st4{fill:#7F2629;}
</style>
<linearGradient id="SVGID_1_" gradientUnits="userSpaceOnUse" x1="306.6452" y1="797.5213" x2="304.5098" y2="31.5773">
	<stop  offset="0" style="stop-color:#C05627"/>
	<stop  offset="1" style="stop-color:#D97034"/>
</linearGradient>
<rect x="-2.48" y="0.04" class="st0" width="616.1" height="822.17"/>
<g>
	<path class="st1" d="M191.41,827.72c0,0,34.79-79.84-26.73-122.99c-58.99-41.38-88.49-51.37-91-96.64"/>
	<g>
		<g>
			<path class="st2" d="M195.09,818.88c0,0,6.57-0.17,8.58-5.5c-4.91-1.05-8.71,4.97-8.71,4.97L195.09,818.88z"/>
		</g>
	</g>
	<g>
		<g>
			<path class="st2" d="M201.34,787.36c0,0,6.57-0.17,8.58-5.5c-4.91-1.05-8.71,4.97-8.71,4.97L201.34,787.36z"/>
		</g>
	</g>
	<g>
		<g>
			<path class="st2" d="M199.37,753.51c0,0,19.55-12.95,15.53-32.88c-16.84,6.14-16.91,31.53-16.91,31.53L199.37,753.51z"/>
		</g>
	</g>
	<g>
		<g>
			<path class="st2" d="M183.89,722.11c0,0,3.45-5.6,0.08-10.19c-3.56,3.55-0.59,10.01-0.59,10.01L183.89,722.11z"/>
		</g>
	</g>
	<g>
		<g>
			<path class="st2" d="M148.69,692.76c0,0,6.21-28.48-14.63-42.76c-9.69,20.06,12.23,42.76,12.23,42.76L148.69,692.76z"/>
		</g>
	</g>
	<g>
		<g>
			<path class="st2" d="M106.74,664.59c0,0,1.4-6.42-3.3-9.64c-2.19,4.52,2.76,9.64,2.76,9.64L106.74,664.59z"/>
		</g>
	</g>
	<g>
		<g>
			<path class="st2" d="M76.57,625.72c0,0,5.73-3.22,5.02-8.87c-4.83,1.37-5.38,8.46-5.38,8.46L76.57,625.72z"/>
		</g>
	</g>
	<g>
		<g>
			<path class="st2" d="M199.18,801.33c0,0-4.42-36.26-34.99-44.55c-3.17,27.75,32.15,45.53,32.15,45.53L199.18,801.33z"/>
		</g>
	</g>
	<g>
		<g>
			<path class="st2" d="M200.92,770.89c0,0-1.53-6.39-7.16-7.25c0,5.02,6.67,7.48,6.67,7.48L200.92,770.89z"/>
		</g>
	</g>
	<g>
		<g>
			<path class="st2" d="M192.61,737.4c0,0-3.44-5.6-9.06-4.66c1.56,4.78,8.67,5.03,8.67,5.03L192.61,737.4z"/>
		</g>
	</g>
	<g>
		<g>
			<path class="st2" d="M169.13,707.77c0,0-5.89-2.93-10.16,0.85c3.85,3.22,10.02-0.32,10.02-0.32L169.13,707.77z"/>
		</g>
	</g>
	<g>
		<g>
			<path class="st2" d="M126.43,678.28c0,0-6.1-2.46-10.06,1.64c4.09,2.91,9.97-1.11,9.97-1.11L126.43,678.28z"/>
		</g>
	</g>
	<g>
		<g>
			<path class="st2" d="M86,644.77c0,0-26.42-23.22-53.69-9.58c15.5,21.97,52.28,12.11,52.28,12.11L86,644.77z"/>
		</g>
	</g>
	<g>
		<g>
			<g>
				<path class="st2" d="M69.51,610.48c-16-9.34-28.66-22.11-37.92-38.21c-9.63-16.73-14.17-33.62-13.91-51.89l1.86,1.14
					c1.48,7.87,2.91,12.57,6.46,21.46c3.86,9.67,8,18.21,12.84,26.63c9.92,17.25,18.84,28.45,30.56,38.59L69.51,610.48z"/>
			</g>
		</g>
		<g>
			<g>
				<path class="st2" d="M17.67,520.39c16.66,8.11,30.24,19.89,40.69,35.25c10.86,15.96,16.66,32.46,17.77,50.7l-1.94-1
					c-2.07-7.73-3.85-12.32-8.06-20.91c-4.58-9.35-9.34-17.56-14.81-25.59c-11.19-16.46-20.93-26.95-33.37-36.18L17.67,520.39z"/>
			</g>
		</g>
		<g>
			<g>
				<path class="st2" d="M31.28,550.26c10.86,5.29,19.72,12.97,26.53,22.99c7.08,10.41,10.86,21.17,11.59,33.06l-1.27-0.65
					c-1.35-5.04-2.51-8.03-5.26-13.64c-2.98-6.1-6.09-11.45-9.65-16.68c-7.3-10.73-13.65-17.57-21.76-23.59L31.28,550.26z"/>
			</g>
		</g>
	</g>
	<g>
		<g>
			<g>
				<path class="st2" d="M155.1,711.54c-16.99,7.38-34.78,10.02-53.25,7.96c-19.19-2.14-35.49-8.47-50.06-19.49l2.03-0.83
					c7.22,3.46,11.85,5.09,21.12,7.49c10.08,2.61,19.41,4.33,29.06,5.41c19.78,2.21,34.08,1.64,49.19-1.8L155.1,711.54z"/>
			</g>
		</g>
		<g>
			<g>
				<path class="st2" d="M51.8,700.03c16.39-8.63,33.93-12.61,52.5-11.95c19.29,0.69,36.02,5.78,51.39,15.67l-1.96,0.98
					c-7.46-2.91-12.2-4.19-21.63-5.88c-10.25-1.84-19.68-2.86-29.39-3.2c-19.89-0.71-34.11,0.93-48.91,5.5L51.8,700.03z"/>
			</g>
		</g>
		<g>
			<g>
				<path class="st2" d="M83.94,706.73c10.69-5.63,22.12-8.23,34.23-7.79c12.58,0.45,23.49,3.77,33.51,10.22l-1.28,0.64
					c-4.86-1.9-7.96-2.73-14.1-3.83c-6.68-1.2-12.83-1.86-19.16-2.09c-12.97-0.46-22.24,0.61-31.89,3.59L83.94,706.73z"/>
			</g>
		</g>
	</g>
	<g>
		<g>
			<g>
				<path class="st2" d="M74.18,608.2c2.04-8,5.97-14.98,11.73-20.92c5.99-6.17,12.67-10.18,20.53-12.31l-0.26,0.94
					c-3.19,1.6-5.03,2.78-8.4,5.39c-3.67,2.84-6.82,5.65-9.84,8.76c-6.18,6.36-9.88,11.55-12.79,17.81L74.18,608.2z"/>
			</g>
		</g>
		<g>
			<g>
				<path class="st2" d="M106.43,574.96c-1.43,8.13-4.82,15.39-10.12,21.75c-5.51,6.61-11.87,11.11-19.55,13.82l0.19-0.96
					c3.06-1.83,4.81-3.15,7.97-6.01c3.45-3.11,6.38-6.15,9.15-9.47c5.68-6.81,8.98-12.26,11.42-18.73L106.43,574.96z"/>
			</g>
		</g>
		<g>
			<g>
				<path class="st2" d="M95.3,584.45c-0.94,5.3-3.14,10.04-6.6,14.18c-3.59,4.31-7.74,7.24-12.75,9.01l0.12-0.62
					c2-1.19,3.13-2.06,5.2-3.92c2.25-2.02,4.16-4.01,5.97-6.18c3.7-4.44,5.86-8,7.44-12.21L95.3,584.45z"/>
			</g>
		</g>
	</g>
</g>
<g>
	<g>
		<path class="st2" d="M426.87,161.95c0,0,4.24-8.2-0.96-14.28c-4.61,5.34,0.23,14.08,0.23,14.08L426.87,161.95z"/>
	</g>
	<g>
		<path class="st2" d="M406.06,146.85c0,0,4.24-8.2-0.96-14.28c-4.61,5.34,0.23,14.08,0.23,14.08L406.06,146.85z"/>
	</g>
	<g>
		<path class="st2" d="M391.31,124.64c0,0,9.48-4.4,9.21-12.16c-7.79,1.86-9.71,11.6-9.71,11.6L391.31,124.64z"/>
	</g>
	<g>
		<path class="st2" d="M394.77,138.79c0,0-8.61-5.93-15.15-1.74c5.57,5.76,14.93,2.46,14.93,2.46L394.77,138.79z"/>
	</g>
	<g>
		<path class="st2" d="M419.13,303.85c0,0,9.2-0.71,11.63-8.34c-6.97-1.11-11.85,7.61-11.85,7.61L419.13,303.85z"/>
	</g>
	<g>
		<path class="st2" d="M389.18,50.58c4.78,1.69,7.48,4.9,8.82,10.49c1.09,4.56,0.95,8.26-0.48,11.43c-1.55,3.72-4.72,6.34-8.61,7.27
			c-7.79,1.87-15.19-3.82-17.5-13.43c-1.54-6.45,0.17-11.1,4.55-12.15c2.92-0.7,5.35,0.84,6.03,3.7c0.7,2.92-0.75,5.45-3.43,6.1
			c-2.68,0.64-5.2-0.75-5.75-3.06c-0.1-0.43-0.13-0.8-0.14-1.64c-0.74,1.46-0.85,3.16-0.31,5.41c0.61,2.55,1.65,3.14,4.51,2.46
			l14.78-3.54c3.83-0.92,4.68-1.96,3.99-4.82c-0.71-2.98-3.09-5.37-6.82-6.98L389.18,50.58z"/>
	</g>
	<g>
		<path class="st2" d="M316.54,405.02c2.69,4.29,2.81,8.49,0.39,13.7c-1.98,4.25-4.39,7.06-7.48,8.66
			c-3.52,1.95-7.64,2.03-11.27,0.34c-7.26-3.38-9.53-12.44-5.36-21.4c2.8-6.01,7.03-8.59,11.12-6.69c2.72,1.27,3.67,3.98,2.42,6.65
			c-1.27,2.72-3.98,3.81-6.47,2.64s-3.6-3.82-2.6-5.97c0.18-0.4,0.4-0.71,0.91-1.37c-1.49,0.69-2.63,1.95-3.61,4.05
			c-1.11,2.38-0.66,3.49,2.01,4.73l13.78,6.41c3.57,1.66,4.88,1.37,6.12-1.29c1.29-2.78,0.92-6.13-1-9.71L316.54,405.02z"/>
	</g>
	<g>
		<path class="st2" d="M395.29,224.31c-2.66-4.31-2.74-8.51-0.27-13.7c2.01-4.24,4.45-7.03,7.55-8.6c3.54-1.92,7.65-1.97,11.27-0.25
			c7.23,3.44,9.42,12.52,5.18,21.44c-2.85,5.99-7.11,8.53-11.17,6.6c-2.71-1.29-3.63-4.01-2.37-6.67c1.29-2.71,4.01-3.77,6.5-2.59
			s3.57,3.85,2.55,5.99c-0.19,0.4-0.4,0.71-0.92,1.36c1.5-0.67,2.65-1.93,3.64-4.02c1.13-2.37,0.69-3.48-1.97-4.74l-13.73-6.53
			c-3.56-1.69-4.87-1.41-6.13,1.24c-1.32,2.77-0.97,6.12,0.92,9.72L395.29,224.31z"/>
	</g>
	<g>
		<path class="st3" d="M407.76,166.93c0.13,1.67,0.92,2.65,3.19,4.12l17.76,11.41c2.51,1.62,3.54,3.22,3.34,5.15
			c-0.24,2.36-2.1,3.87-4.42,3.63c-2.36-0.24-3.99-2.16-3.76-4.43c0.21-2.06,1.68-3.49,3.83-3.69l-4.74-3.09l-17.34,7.66l-0.11,1.09
			l-0.84-0.09l1.43-13.89l0.84,0.09l-0.19,1.81l6.64-2.89l-1.83-1.21c-0.79-0.55-1.49-0.83-2.04-0.89c-1.39-0.14-2.1,0.55-2.51,2.46
			l-0.84-0.09l0.75-7.24L407.76,166.93z"/>
	</g>
	<g>
		<path class="st3" d="M345.93,341.87c-0.41,1.63,0.04,2.8,1.74,4.91l13.27,16.41c1.88,2.33,2.35,4.17,1.55,5.94
			c-0.97,2.16-3.21,3.01-5.33,2.06c-2.16-0.97-3.11-3.3-2.17-5.39c0.85-1.89,2.69-2.78,4.79-2.3l-3.53-4.42l-18.87,1.82l-0.45,1
			l-0.77-0.35l5.73-12.74l0.77,0.35l-0.75,1.66l7.21-0.66l-1.36-1.72c-0.58-0.77-1.15-1.26-1.65-1.49
			c-1.27-0.57-2.17-0.14-3.16,1.55l-0.77-0.35l2.99-6.64L345.93,341.87z"/>
	</g>
	<g>
		<path class="st2" d="M288.32,510.14c-0.84-53.28,27.41-110.71,57.33-171.51c24.52-49.84,49.88-101.38,57.69-150.39
			c11.93-74.84-17.2-148.28-35.62-185.39l1.98-0.99c18.54,37.35,47.86,111.28,35.83,186.73c-7.87,49.34-33.3,101.03-57.9,151.02
			c-29.79,60.56-57.93,117.75-57.1,170.5L288.32,510.14z"/>
	</g>
	<g>
		<path class="st2" d="M386.13,203.67l-0.89-2.03c17.79-7.85,20.61-40.77,20.64-41.1l2.21,0.18
			C407.97,162.13,405.14,195.28,386.13,203.67z"/>
	</g>
	<g>
		<path class="st2" d="M384.4,186.6c-1.53,0-3.12-0.16-4.75-0.54l-1.3-0.3l0.53-1.22c5.56-12.87,24.43-13.03,25.23-13.03h1.33
			l-0.95,5.27l-0.2,0.23C403.91,177.46,395.8,186.6,384.4,186.6z M381.54,184.16c10.83,1.61,19.48-6.91,20.88-8.39l0.36-1.98
			C398.68,174.07,386.29,175.6,381.54,184.16z"/>
	</g>
	<g>
		<path class="st2" d="M381.21,119.21l-1.17-1.88c16.52-10.26,14.72-43.24,14.7-43.57l2.22-0.13
			C397.04,75.02,398.85,108.25,381.21,119.21z"/>
	</g>
	<g>
		<path class="st2" d="M374.15,102.76c-0.59,0-1.2-0.03-1.81-0.08l-1.33-0.11l0.36-1.29c3.72-13.52,22.37-16.31,23.17-16.42
			l1.31-0.19l-0.2,5.35l-0.16,0.26C395.13,90.81,387.19,102.76,374.15,102.76z M373.94,100.53c0.05,0,0.11,0,0.16,0
			c10.91,0,18.18-9.56,19.35-11.22l0.07-2.01C389.5,88.14,377.45,91.39,373.94,100.53z"/>
	</g>
	<g>
		<path class="st2" d="M314.04,361.12c-0.12,0-0.24,0-0.36,0l0.03-2.22c0.1,0,0.21,0,0.31,0c19.31,0,35.46-28.4,35.63-28.69
			l1.93,1.08C350.9,332.51,334.63,361.12,314.04,361.12z"/>
	</g>
	<g>
		<path class="st2" d="M329.19,346.96c-4.44,0-9.49-1.06-14.03-4.55l-1.06-0.81l0.99-0.89c10.43-9.35,27.64-1.61,28.37-1.27
			l1.2,0.55l-3.06,4.39l-0.28,0.13C340.97,344.67,335.73,346.96,329.19,346.96z M317.67,341.47c9.2,6.03,20.58,1.89,22.48,1.12
			l1.15-1.65C337.47,339.48,325.57,335.69,317.67,341.47z"/>
	</g>
	<g>
		<path class="st4" d="M411.62,62.3c-1.46-3.42-1.45-5.66,0.02-8.43c0.95-1.8,2.23-2.93,3.66-3.18c1.45-0.3,2.73,0.04,5.32,1.41
			l10.32,5.47l1.56-2.94l1.1,0.58l-0.72,1.36c-1.88,3.56-2.47,4.99-3.15,7.11l-12.91-6.84c-1.8-0.95-2.17-1.1-2.87-0.96
			c-0.67,0.1-1.23,0.53-1.58,1.19c-0.7,1.32-0.59,3.34,0.26,4.81c0.67,1.08,1.32,1.66,3.47,2.79l8.65,4.58l1.56-2.94l1.1,0.58
			l-0.72,1.36c-1.88,3.56-2.47,4.99-3.15,7.11l-16.65-8.81l-1.54,2.9l-1.1-0.58l4.33-8.17L411.62,62.3z"/>
	</g>
	<g>
		<path class="st4" d="M381.2,203.03l-11.11,1.59c-0.8,0.1-1.05,0.19-1.28,0.32c-0.5,0.29-0.47,0.76,0.17,1.85l0.99,1.68l-1.14,0.67
			l-4.54-7.72l1.14-0.67l0.61,1.04c1.06,1.7,1.26,1.83,3.78,1.44l18.76-2.72l0.72,1.23l-12.52,18.32l1.2,2.04l-1.14,0.67l-6.2-10.54
			l1.14-0.67l1.66,2.82L381.2,203.03z"/>
	</g>
	<g>
		<g>
			<path class="st4" d="M302.4,351.44c5.42-1.23,10.78,2.5,12.13,8.45c1.36,6-1.86,11.63-7.43,12.9
				c-5.47,1.24-10.86-2.44-12.22-8.39C293.5,358.32,296.74,352.73,302.4,351.44z M299.06,367.37c1.11,0.25,3.11,0.04,6.68-0.77
				c3.86-0.88,5.7-1.55,6.55-2.44c0.98-0.97,1.31-2.4,0.95-3.97c-0.39-1.72-1.47-2.92-2.9-3.3c-1.11-0.25-3.16-0.03-6.59,0.75
				c-4,0.91-5.8,1.57-6.65,2.46c-0.98,0.97-1.31,2.4-0.95,3.97C296.55,365.79,297.63,366.99,299.06,367.37z"/>
		</g>
	</g>
	<g>
		<path class="st2" d="M265.85,502.54l-0.47-2.17c19-4.12,28.38-35.79,28.47-36.11l2.13,0.62
			C295.59,466.23,286.15,498.14,265.85,502.54z"/>
	</g>
	<g>
		<path class="st2" d="M271.99,485.92c-2.86,0-5.9-0.53-8.96-1.92l-1.21-0.55l0.76-1.09c8.04-11.49,26.56-7.85,27.34-7.7l1.3,0.27
			l-1.98,4.97l-0.25,0.19C288.59,480.39,281.2,485.92,271.99,485.92z M265.26,482.51c10.37,3.8,20.48-2.85,22.15-4.02l0.75-1.87
			C284.08,476.07,271.64,475.08,265.26,482.51z"/>
	</g>
	<g>
		<path class="st2" d="M411.27,58.34c-21.88-1.19-33.46-33.14-33.95-34.5l2.22-0.78c0.11,0.32,11.53,31.83,31.86,32.94L411.27,58.34
			z"/>
	</g>
	<g>
		<path class="st2" d="M399.3,42.09c-7.85,0-13.84-3.36-14.22-3.58l-0.3-0.17l-2.31-4.81l1.15-0.42c0.82-0.3,20.32-7.22,29.44,3.49
			l0.84,0.98l-1.1,0.68C408.15,41.14,403.46,42.09,399.3,42.09z M386.47,36.75c1.94,0.99,13.12,6.19,23.98,0.32
			c-7.23-6.87-20.84-3.47-24.9-2.24L386.47,36.75z"/>
	</g>
	<g>
		<path class="st2" d="M398.07,273.61c-15.94-15.05-4.13-46.91-3.62-48.26l2.2,0.83c-0.12,0.32-11.77,31.75,3.03,45.72
			L398.07,273.61z"/>
	</g>
	<g>
		<path class="st2" d="M413.48,259.47l-1.28-0.19c-15.56-2.33-21.09-17.09-21.32-17.72l-0.12-0.32l1.35-5.16l1.15,0.42
			c0.82,0.3,20.18,7.62,20.21,21.68L413.48,259.47z M393.09,241.11c0.84,2,6,13.2,18.09,15.74c-1.08-9.92-13.66-16.11-17.55-17.8
			L393.09,241.11z"/>
	</g>
	<g>
		<path class="st4" d="M334.67,424.54l1.43,11.14c0.09,0.8,0.17,1.05,0.3,1.28c0.29,0.5,0.76,0.48,1.86-0.15l1.69-0.96l0.65,1.15
			l-7.79,4.43l-0.65-1.15l1.05-0.6c1.71-1.04,1.85-1.23,1.5-3.76l-2.45-18.8l1.24-0.7l18.13,12.79l2.06-1.17l0.65,1.15l-10.63,6.05
			l-0.65-1.15l2.84-1.62L334.67,424.54z"/>
	</g>
	<g>
		<path class="st4" d="M260.69,498.9c3.7,0.26,5.7,1.3,7.49,3.86c1.17,1.67,1.59,3.32,1.16,4.71c-0.4,1.43-1.29,2.41-3.69,4.09
			l-9.58,6.69l1.91,2.73l-1.02,0.71l-0.88-1.26c-2.3-3.3-3.31-4.48-4.89-6.05l11.98-8.37c1.67-1.17,1.97-1.43,2.16-2.11
			c0.22-0.64,0.09-1.34-0.33-1.95c-0.85-1.22-2.7-2.05-4.4-1.96c-1.27,0.1-2.07,0.42-4.07,1.81l-8.03,5.61l1.91,2.73l-1.02,0.71
			l-0.88-1.26c-2.3-3.3-3.31-4.48-4.89-6.05l15.44-10.78l-1.88-2.69l1.02-0.71l5.29,7.58L260.69,498.9z"/>
	</g>
	<g>
		<g>
			<path class="st4" d="M366.49,117.18c3.9-3.97,10.42-3.73,14.78,0.55c4.39,4.3,4.73,10.79,0.73,14.87
				c-3.93,4.01-10.45,3.83-14.81-0.44C362.73,127.77,362.42,121.32,366.49,117.18z M372.3,132.38c1.07-0.39,2.64-1.65,5.21-4.26
				c2.77-2.82,3.96-4.39,4.19-5.6c0.3-1.35-0.2-2.72-1.35-3.85c-1.26-1.23-2.81-1.66-4.22-1.2c-1.07,0.39-2.68,1.68-5.14,4.19
				c-2.87,2.93-4.03,4.46-4.26,5.67c-0.3,1.35,0.2,2.72,1.35,3.85C369.33,132.41,370.89,132.84,372.3,132.38z"/>
		</g>
	</g>
	<g>
		<path class="st4" d="M395.78,276.86c1.1-3.55,2.55-5.26,5.46-6.42c1.89-0.76,3.59-0.8,4.85-0.07c1.3,0.71,2.06,1.8,3.15,4.52
			l4.35,10.84l3.09-1.24l0.46,1.15l-1.43,0.57c-3.74,1.5-5.11,2.21-6.99,3.39l-5.44-13.56c-0.76-1.89-0.95-2.24-1.57-2.58
			c-0.57-0.36-1.28-0.4-1.97-0.12c-1.38,0.56-2.61,2.17-2.9,3.84c-0.19,1.26-0.06,2.12,0.84,4.37l3.64,9.09l3.09-1.24l0.46,1.15
			l-1.43,0.57c-3.74,1.5-5.11,2.21-6.99,3.39l-7.01-17.48l-3.04,1.22l-0.46-1.15l8.58-3.44L395.78,276.86z"/>
	</g>
	<g>
		<path class="st2" d="M333.23,419.43c-15.94-15.05-4.13-46.91-3.62-48.26l2.2,0.83c-0.12,0.32-11.77,31.75,3.03,45.72
			L333.23,419.43z"/>
	</g>
	<g>
		<path class="st2" d="M348.64,405.29l-1.28-0.19c-15.56-2.33-21.09-17.09-21.32-17.72l-0.12-0.32l1.35-5.16l1.15,0.42
			c0.82,0.3,20.18,7.61,20.21,21.68L348.64,405.29z M328.25,386.93c0.84,2,6,13.2,18.09,15.73c-1.08-9.93-13.66-16.11-17.55-17.8
			L328.25,386.93z"/>
	</g>
	<g>
		<g>
			<path class="st2" d="M350.49,43.3l-0.26-1.27c-4.55-22.3,13.34-37.6,13.52-37.76l0.13-0.09L370,0.39l0.05,1.93
				c0.03,1.37,0.68,33.53-18.36,40.53L350.49,43.3z M365.12,6.02c-1.05,0.92-16.19,14.57-12.96,34.24
				c13.85-6.32,15.49-29.06,15.66-35.91L365.12,6.02z"/>
		</g>
		<g>
			<path class="st2" d="M362.3,24.16c-2.76-3.68-3.78-7.26-3.08-10.74c0.73-3.61,3-6.44,6.99-8.69l0.31,0.44
				c-1.25,1.22-1.83,2.03-2.68,3.7c-0.93,1.82-1.53,3.54-1.89,5.35c-0.75,3.72-0.49,6.52,0.81,9.63L362.3,24.16z"/>
		</g>
	</g>
	<g>
		<g>
			<path class="st2" d="M430.2,152.05l-1.21-0.46c-21.28-8.07-24.66-31.36-24.69-31.6l-0.01-0.16l0.07-7.2l1.66,0.99
				c1.17,0.7,28.71,17.33,24.45,37.17L430.2,152.05z M406.51,119.77c0.22,1.37,3.67,21.47,22.02,29.25
				c2.06-15.09-16.29-28.62-21.99-32.43L406.51,119.77z"/>
		</g>
		<g>
			<path class="st2" d="M420.34,131.85c-4.58,0.37-8.16-0.68-10.72-3.13c-2.66-2.54-3.84-5.97-3.61-10.55l0.53-0.03
				c0.36,1.71,0.74,2.63,1.7,4.24c1.04,1.75,2.17,3.18,3.51,4.46c2.74,2.62,5.25,3.9,8.58,4.45L420.34,131.85z"/>
		</g>
	</g>
	<g>
		<g>
			<path class="st2" d="M316.32,475.63l-0.99-0.82c-17.54-14.51-13.22-37.65-13.17-37.88l0.04-0.15l2.39-6.79l1.25,1.47
				c0.88,1.04,21.58,25.67,11.15,43.07L316.32,475.63z M304.31,437.43c-0.24,1.37-3.46,21.5,11.4,34.79
				c6.82-13.63-6.18-32.35-10.35-37.79L304.31,437.43z"/>
		</g>
		<g>
			<path class="st2" d="M313.5,453.33c-4.46-1.13-7.5-3.28-9.14-6.42c-1.7-3.26-1.71-6.89-0.01-11.15l0.51,0.14
				c-0.21,1.73-0.15,2.73,0.24,4.57c0.42,2,1.03,3.71,1.89,5.36c1.75,3.36,3.71,5.39,6.68,6.98L313.5,453.33z"/>
		</g>
	</g>
	<g>
		<g>
			<path class="st2" d="M344.63,302.36c-1.26,0-2.53-0.11-3.83-0.36l-1.3-0.25l0.44-1.25c7.75-22.18,31.62-26.26,31.85-26.3
				l0.16-0.01l7.4-0.11l-0.97,1.73C377.75,276.96,363.32,302.36,344.63,302.36z M342.58,299.96c15.67,1.79,29.01-17.55,32.77-23.53
				l-3.27,0.05C370.68,276.73,350.11,280.81,342.58,299.96z"/>
		</g>
		<g>
			<path class="st2" d="M360.02,291.06c-0.49-4.72,0.49-8.44,2.94-11.15c2.54-2.81,6.04-4.12,10.75-4l0.04,0.55
				c-1.74,0.42-2.69,0.83-4.32,1.86c-1.78,1.12-3.22,2.33-4.5,3.74c-2.62,2.9-3.88,5.52-4.36,8.96L360.02,291.06z"/>
		</g>
	</g>
	<g>
		<g>
			<path class="st2" d="M407.79,139.02c-7.06,2.88-11.92,7.49-13.04,12.49c-0.17,0.76-0.04,1.33,0.48,1.44
				c0.34,0.08,0.44,0.01,1.74-0.59c1.31-0.69,3.14-0.9,4.66-0.56c4.25,0.95,6.84,5.27,5.85,9.68c-1.03,4.58-5.51,7.14-10.6,6
				c-5.94-1.33-8.41-6.61-6.68-14.32c1.73-7.72,7.38-13.49,16.48-16.71L407.79,139.02z"/>
		</g>
	</g>
	<g>
		<g>
			<path class="st2" d="M389.32,243.92c-7.6,0.48-13.68,3.31-16.33,7.7c-0.4,0.67-0.46,1.25-0.01,1.52c0.3,0.18,0.41,0.15,1.84-0.01
				c1.46-0.24,3.26,0.15,4.6,0.95c3.72,2.25,4.81,7.17,2.47,11.04c-2.43,4.01-7.49,5.02-11.96,2.32c-5.21-3.15-5.88-8.94-1.79-15.71
				c4.09-6.77,11.29-10.44,20.93-10.61L389.32,243.92z"/>
		</g>
	</g>
	<g>
		<g>
			<path class="st2" d="M301.61,443.08c-7.6,0.48-13.68,3.31-16.33,7.7c-0.4,0.67-0.46,1.25-0.01,1.52c0.3,0.18,0.41,0.15,1.84-0.01
				c1.46-0.24,3.26,0.15,4.6,0.95c3.72,2.25,4.81,7.17,2.47,11.04c-2.43,4.01-7.49,5.02-11.96,2.32c-5.21-3.15-5.88-8.94-1.79-15.71
				c4.09-6.77,11.29-10.44,20.93-10.61L301.61,443.08z"/>
		</g>
	</g>
	<g>
		<g>
			<path class="st2" d="M403.07,108.68c6.43-4.09,10.38-9.5,10.58-14.63c0.03-0.78-0.2-1.31-0.73-1.33
				c-0.35-0.01-0.44,0.07-1.6,0.89c-1.16,0.91-2.93,1.45-4.49,1.38c-4.35-0.17-7.67-3.96-7.49-8.48c0.19-4.69,4.14-8.01,9.35-7.8
				c6.08,0.24,9.46,4.99,9.14,12.89c-0.32,7.9-4.85,14.59-13.21,19.39L403.07,108.68z"/>
		</g>
	</g>
	<g>
		<g>
			<path class="st2" d="M350.67,329.36c7.59,0.68,14.02-1.18,17.31-5.11c0.5-0.6,0.64-1.16,0.24-1.5c-0.27-0.22-0.39-0.21-1.81-0.27
				c-1.48,0.01-3.2-0.64-4.4-1.65c-3.34-2.79-3.65-7.82-0.75-11.29c3.01-3.6,8.17-3.81,12.17-0.46c4.67,3.91,4.44,9.73-0.64,15.79
				c-5.08,6.06-12.75,8.59-22.31,7.28L350.67,329.36z"/>
		</g>
	</g>
	<g>
		<g>
			<path class="st4" d="M417.33,127.54c-1.27,0.23-2.12,0.05-2.98-0.54c-1.63-1.11-1.97-2.68-0.99-4.54
				c-2.11,1.04-4.32,0.93-6.11-0.29c-2.09-1.42-2.64-3.68-1.37-5.54c1.13-1.66,3.09-2.26,5.6-1.74c1.55,0.36,3.07,1.05,5.32,2.53
				l1.59-2.33c1.31-1.93,1.48-2.31,1.41-3c-0.06-0.63-0.6-1.4-1.33-1.9c-1.19-0.81-3.03-0.97-3.49-0.29
				c-0.09,0.14-0.1,0.23-0.09,0.49c0.09,0.66,0,0.99-0.25,1.37c-0.58,0.85-1.59,1.05-2.35,0.53c-0.83-0.56-1.01-1.58-0.41-2.46
				c1.22-1.79,4.76-1.72,7.51,0.16c1.62,1.11,2.75,2.66,2.95,4.08c0.2,1.28,0.12,1.47-1.91,4.45l-2.53,3.72
				c-2.19,3.22-2.19,3.22-2.26,3.61c-0.11,0.37-0.05,0.57,0.29,0.79c0.33,0.23,0.42,0.24,1.36,0.13L417.33,127.54z M416.4,117.99
				c-1.8-1.13-2.77-1.49-3.91-1.52c-1.41-0.07-2.48,0.44-3.24,1.56c-0.97,1.42-0.81,2.76,0.45,3.62c0.99,0.68,2.19,0.7,3.39,0.08
				c0.8-0.4,1.66-1.3,2.86-3.06L416.4,117.99z"/>
		</g>
	</g>
	<g>
		<g>
			<path class="st4" d="M314.85,448.54c-1.27,0.23-2.12,0.05-2.98-0.54c-1.63-1.11-1.97-2.68-0.99-4.54
				c-2.11,1.04-4.32,0.93-6.11-0.29c-2.09-1.42-2.64-3.68-1.37-5.54c1.13-1.66,3.09-2.26,5.6-1.74c1.55,0.36,3.07,1.05,5.32,2.53
				l1.59-2.33c1.31-1.93,1.48-2.31,1.41-3c-0.06-0.63-0.6-1.4-1.33-1.9c-1.19-0.81-3.03-0.97-3.49-0.29
				c-0.09,0.14-0.1,0.23-0.09,0.49c0.09,0.66,0,0.99-0.25,1.37c-0.58,0.85-1.59,1.05-2.35,0.53c-0.83-0.56-1.01-1.58-0.41-2.46
				c1.22-1.79,4.76-1.72,7.51,0.16c1.62,1.11,2.75,2.66,2.95,4.08c0.2,1.28,0.12,1.47-1.91,4.45l-2.53,3.72
				c-2.19,3.22-2.19,3.22-2.26,3.61c-0.11,0.37-0.05,0.57,0.29,0.79c0.33,0.23,0.42,0.24,1.36,0.13L314.85,448.54z M313.92,439
				c-1.8-1.13-2.77-1.49-3.91-1.52c-1.41-0.07-2.48,0.44-3.24,1.56c-0.97,1.42-0.81,2.76,0.45,3.62c0.99,0.68,2.19,0.7,3.39,0.08
				c0.8-0.4,1.66-1.3,2.86-3.06L313.92,439z"/>
		</g>
	</g>
	<g>
		<g>
			<path class="st2" d="M375.66,278.06l-0.02-1.07l8.35-0.18l0.53,24.14c0.1,4.57-0.13,6.23-1.05,7.85
				c-1.23,2.1-3.44,3.42-5.72,3.47c-2.76,0.06-4.87-1.49-4.92-3.61c-0.03-1.49,0.8-2.46,2.13-2.49c1.28-0.03,2.15,0.85,2.17,2.18
				c0.01,0.32,0.01,0.37-0.13,1.28c-0.05,0.11-0.05,0.27-0.04,0.43c0.02,0.8,0.34,1.11,1.04,1.09c0.85-0.02,1.48-0.67,1.77-1.74
				c0.15-0.64,0.14-1.12,0.07-3.93l-0.6-27.49L375.66,278.06z M384.17,265.95c0.04,1.7-1.26,3.06-2.91,3.1
				c-1.65,0.04-2.95-1.27-2.99-3.02c-0.04-1.7,1.16-3.01,2.86-3.04C382.77,262.95,384.13,264.25,384.17,265.95z"/>
		</g>
	</g>
	<g>
		<g>
			<path class="st2" d="M285.75,477.81l0.05-1.08l8.48,0.37l-1.08,24.51c-0.2,4.64-0.55,6.3-1.59,7.88
				c-1.39,2.04-3.71,3.24-6.03,3.14c-2.81-0.12-4.84-1.83-4.75-3.99c0.07-1.51,0.97-2.45,2.32-2.39c1.29,0.06,2.12,1.01,2.06,2.36
				c-0.01,0.33-0.02,0.38-0.22,1.29c-0.06,0.11-0.07,0.27-0.07,0.43c-0.04,0.81,0.28,1.15,0.98,1.18c0.86,0.04,1.54-0.58,1.91-1.65
				c0.19-0.64,0.21-1.13,0.34-3.98l1.23-27.91L285.75,477.81z M295.19,466.11c-0.08,1.73-1.48,3.02-3.16,2.94
				c-1.67-0.07-2.91-1.48-2.83-3.26c0.08-1.73,1.37-2.97,3.1-2.89C293.98,462.97,295.27,464.38,295.19,466.11z"/>
		</g>
	</g>
	<g>
		<g>
			<path class="st2" d="M288.76,408.98c-12.34-6.05-22.39-14.82-30.11-26.24c-8.02-11.86-12.29-24.12-13.07-37.65l1.44,0.75
				c1.52,5.74,2.83,9.14,5.93,15.53c3.37,6.95,6.89,13.05,10.93,19.01c8.27,12.23,15.47,20.03,24.68,26.91L288.76,408.98z"/>
		</g>
		<g>
			<path class="st2" d="M245.57,345.11c12.76,5.1,23.44,13.09,32,23.9c8.89,11.23,14.07,23.12,15.87,36.56l-1.49-0.64
				c-1.94-5.61-3.51-8.91-7.09-15.04c-3.89-6.68-7.86-12.49-12.33-18.14c-9.17-11.57-16.93-18.81-26.63-24.98L245.57,345.11z"/>
		</g>
		<g>
			<path class="st2" d="M257.24,366.48c8.32,3.33,15.29,8.54,20.87,15.58c5.8,7.32,9.17,15.08,10.35,23.84l-0.97-0.41
				c-1.27-3.66-2.29-5.81-4.62-9.81c-2.54-4.35-5.12-8.14-8.04-11.83c-5.98-7.55-11.04-12.27-17.37-16.29L257.24,366.48z"/>
		</g>
	</g>
	<g>
		<g>
			<path class="st2" d="M289.7,419.81c-11.08,8.13-23.52,12.96-37.21,14.5c-14.23,1.6-27.06-0.3-39.42-5.88l1.33-0.93
				c5.79,1.32,9.41,1.74,16.51,1.95c7.72,0.23,14.75-0.06,21.91-0.86c14.67-1.65,24.92-4.41,35.29-9.38L289.7,419.81z"/>
		</g>
		<g>
			<path class="st2" d="M213.08,428.45c10.44-8.94,22.47-14.7,36.01-17.26c14.07-2.67,27.01-1.74,39.75,2.9l-1.26,1.03
				c-5.87-0.88-9.52-1.02-16.61-0.7c-7.72,0.35-14.71,1.17-21.79,2.51c-14.51,2.75-24.52,6.27-34.48,12.01L213.08,428.45z"/>
		</g>
		<g>
			<path class="st2" d="M237.43,428.02c6.81-5.83,14.65-9.58,23.48-11.26c9.17-1.74,17.61-1.13,25.92,1.89l-0.82,0.67
				c-3.83-0.57-6.21-0.67-10.83-0.46c-5.03,0.23-9.59,0.76-14.21,1.64c-9.46,1.79-15.99,4.09-22.48,7.83L237.43,428.02z"/>
		</g>
	</g>
	<g>
		<g>
			<path class="st2" d="M434.41,171.47c0,0-6.89-6.15-14.07-2.62c4.02,5.8,13.69,3.28,13.69,3.28L434.41,171.47z"/>
		</g>
		<g>
			<path class="st2" d="M447.46,198.44c0,0-5.24-7.6-13.05-5.88c2.54,6.58,12.53,6.43,12.53,6.43L447.46,198.44z"/>
		</g>
		<g>
			<path class="st2" d="M450.03,224.36c0,0-3.68-8.46-11.68-8.27c1.23,6.95,11.06,8.71,11.06,8.71L450.03,224.36z"/>
		</g>
		<g>
			<path class="st2" d="M442.49,255.94c0,0-1.27-9.14-9.02-11.11c-0.69,7.02,8.31,11.37,8.31,11.37L442.49,255.94z"/>
		</g>
		<g>
			<path class="st2" d="M427.27,285.92c0,0,1.04-9.17-5.99-13c-2.4,6.63,5.24,13.07,5.24,13.07L427.27,285.92z"/>
		</g>
		<g>
			<path class="st2" d="M414.3,313.16c0,0,1.04-9.17-5.99-13c-2.4,6.63,5.24,13.07,5.24,13.07L414.3,313.16z"/>
		</g>
		<g>
			<path class="st2" d="M404.73,341.45c0,0,1.04-9.17-5.99-13c-2.4,6.63,5.24,13.07,5.24,13.07L404.73,341.45z"/>
		</g>
		<g>
			<path class="st2" d="M412.72,375.4c0,0-5.03-7.74-12.89-6.22c2.36,6.65,12.35,6.76,12.35,6.76L412.72,375.4z"/>
		</g>
		<g>
			<path class="st2" d="M442.38,185.29c0,0,6.65-6.4,3.68-13.83c-6.08,3.57-4.31,13.41-4.31,13.41L442.38,185.29z"/>
		</g>
		<g>
			<path class="st2" d="M450.98,215.56c0,0,8.36-3.91,7.95-11.9c-6.91,1.42-8.41,11.3-8.41,11.3L450.98,215.56z"/>
		</g>
		<g>
			<path class="st2" d="M447.38,244.21c0,0,8.73-2.99,9.18-10.98c-7.02,0.67-9.57,10.33-9.57,10.33L447.38,244.21z"/>
		</g>
		<g>
			<path class="st2" d="M433.01,277.27c0,0,9.15-1.23,11.15-8.97c-7.02-0.72-11.41,8.26-11.41,8.26L433.01,277.27z"/>
		</g>
		<g>
			<path class="st2" d="M408.06,330.75c0,0,9.2-0.71,11.63-8.34c-6.97-1.11-11.85,7.61-11.85,7.61L408.06,330.75z"/>
		</g>
		<g>
			<path class="st2" d="M406.83,362.32c0,0,7.55-5.31,5.75-13.1c-6.56,2.6-6.31,12.59-6.31,12.59L406.83,362.32z"/>
		</g>
		<g>
			<path class="st2" d="M422.66,384.69c0,0,4.78-7.89,0.01-14.31c-4.96,5.02-0.72,14.06-0.72,14.06L422.66,384.69z"/>
		</g>
		<g>
			<path class="st2" d="M437.09,396.1c-0.33-0.14-32.83-14.36-34.08-44.84c-0.71-17.44,11.69-41.66,23.68-65.08
				c9.23-18.03,17.95-35.06,20.94-48.87c6.22-28.73-3.96-68.62-41-88.3c-9.45-5.02-15.03-11.72-16.61-19.91
				c-3.07-15.97,10.1-31.73,10.66-32.4l1.69,1.43c-0.13,0.15-13.04,15.63-10.16,30.55c1.44,7.5,6.65,13.67,15.46,18.36
				c38.07,20.22,48.52,61.21,42.13,90.73c-3.05,14.09-11.84,31.25-21.14,49.41c-11.86,23.17-24.13,47.12-23.44,63.98
				c1.19,29.07,32.41,42.76,32.73,42.89L437.09,396.1z"/>
		</g>
	</g>
</g>
<path class="st4" d="M294.92,497.71c3.29,0.23,5.05,1.15,6.64,3.43c1.04,1.48,1.41,2.94,1.03,4.18c-0.35,1.27-1.14,2.14-3.27,3.63
	l-8.5,5.93l1.69,2.42l-0.9,0.63l-0.78-1.12c-2.04-2.93-2.94-3.97-4.34-5.36l10.63-7.42c1.48-1.03,1.75-1.27,1.92-1.88
	c0.2-0.57,0.08-1.19-0.3-1.73c-0.76-1.08-2.4-1.82-3.9-1.74c-1.13,0.09-1.84,0.37-3.61,1.61l-7.12,4.97l1.69,2.42l-0.9,0.63
	l-0.78-1.12c-2.04-2.93-2.94-3.97-4.34-5.36l13.7-9.57l-1.67-2.39l0.9-0.63l4.7,6.73L294.92,497.71z"/>
</svg>
