<?xml version="1.0" encoding="utf-8"?>
<!-- Generator: Adobe Illustrator 24.3.0, SVG Export Plug-In . SVG Version: 6.00 Build 0)  -->
<svg version="1.1" id="Layer_1" xmlns="http://www.w3.org/2000/svg" xmlns:xlink="http://www.w3.org/1999/xlink" x="0px" y="0px"
	 viewBox="0 0 20 20" style="enable-background:new 0 0 20 20;" xml:space="preserve">
<style type="text/css">
	.st0{fill:#FFFFFF;}
	.st1{fill-rule:evenodd;clip-rule:evenodd;}
</style>
<circle class="st0" cx="10" cy="10" r="9.21"/>
<desc>Created with Sketch.</desc>
<g id="Page-1">
	<g id="Dribbble-Light-Preview" transform="translate(-180.000000, -7479.000000)">
		<g id="icons" transform="translate(56.000000, 160.000000)">
			<path id="linkedin-_x5B__x23_161_x5D_" class="st1" d="M139.78,7333.8h-2.12v-3.62c0-0.99-0.45-1.55-1.25-1.55
				c-0.87,0-1.39,0.58-1.39,1.55v3.62h-2.12v-6.72h2.12v0.76c0,0,0.66-1.14,2.16-1.14c1.5,0,2.6,0.89,2.6,2.74V7333.8L139.78,7333.8
				z M130.49,7326.01c-0.71,0-1.29-0.57-1.29-1.27c0-0.7,0.58-1.27,1.29-1.27c0.71,0,1.29,0.57,1.29,1.27
				C131.78,7325.44,131.21,7326.01,130.49,7326.01L130.49,7326.01z M129.2,7333.8h2.65v-6.72h-2.65V7333.8z"/>
		</g>
	</g>
</g>
</svg>
