<?xml version="1.0" encoding="utf-8"?>
<!-- Generator: Adobe Illustrator 24.3.0, SVG Export Plug-In . SVG Version: 6.00 Build 0)  -->
<svg version="1.1" id="Layer_1" xmlns="http://www.w3.org/2000/svg" xmlns:xlink="http://www.w3.org/1999/xlink" x="0px" y="0px"
	 viewBox="0 0 82.95 82.72" style="enable-background:new 0 0 82.95 82.72;" xml:space="preserve">
<style type="text/css">
	.st0{fill:#FFFFFF;}
</style>
<circle class="st0" cx="41.79" cy="41.93" r="40.22"/>
<path d="M70.62,60.06c0-0.07,0.07-0.2,0.07-0.34v-35.6c0-0.13,0-0.2-0.07-0.34c0,0,0,0,0-0.07c-0.07-0.13-0.13-0.2-0.2-0.34l0,0l0,0
	c-0.07-0.07-0.2-0.13-0.27-0.2l0,0c-0.13-0.07-0.2-0.07-0.34-0.07c0,0,0,0-0.07,0l0,0H13.9c0,0,0,0-0.07,0l0,0
	c-0.13,0-0.27,0.07-0.34,0.07l0,0c-0.13,0.07-0.2,0.13-0.27,0.2l0,0l0,0c-0.07,0.07-0.13,0.2-0.2,0.34c0,0,0,0,0,0.07
	c-0.13,0.13-0.13,0.27-0.13,0.34v35.61c0,0.13,0,0.2,0.07,0.34c0,0,0,0,0,0.07c0.07,0.13,0.13,0.2,0.2,0.34l0,0l0,0
	c0,0.07,0.07,0.07,0.13,0.07c0,0,0,0,0.07,0.07c0.07,0,0.07,0.07,0.13,0.07c0,0,0,0,0.07,0c0.13,0.07,0.27,0.07,0.4,0.07h55.79
	c0.13,0,0.27,0,0.4-0.07h0.07c0.07,0,0.07-0.07,0.13-0.07c0,0,0.07,0,0.07-0.07c0.07,0,0.07-0.07,0.07-0.07l0,0l0,0
	C70.49,60.32,70.56,60.26,70.62,60.06C70.62,60.12,70.62,60.06,70.62,60.06z M14.9,26.4l16.9,15.49L14.9,57.45V26.4z M49.57,41.15
	c-0.07,0.07-0.13,0.07-0.2,0.13c0,0,0,0.07-0.07,0.07l-7.51,6.9L16.44,25.12h50.63L49.57,41.15z M33.27,43.23l7.78,7.11
	c0.2,0.2,0.4,0.27,0.67,0.27c0.27,0,0.47-0.07,0.67-0.27l7.71-7.04L67,58.72H16.44L33.27,43.23z M51.65,41.95l17.03-15.56v31.05
	L51.65,41.95z"/>
</svg>
