<?xml version="1.0" encoding="utf-8"?>
<!-- Generator: Adobe Illustrator 24.3.0, SVG Export Plug-In . SVG Version: 6.00 Build 0)  -->
<svg version="1.1" id="Layer_1" xmlns="http://www.w3.org/2000/svg" xmlns:xlink="http://www.w3.org/1999/xlink" x="0px" y="0px"
	 viewBox="0 0 82.95 82.72" style="enable-background:new 0 0 82.95 82.72;" xml:space="preserve">
<style type="text/css">
	.st0{fill:#FFFFFF;}
	.st1{fill-rule:evenodd;clip-rule:evenodd;}
</style>
<circle class="st0" cx="41.43" cy="41.31" r="40.76"/>
<path class="st1" d="M13.05,41.31c0-15.68,12.71-28.37,28.37-28.37c15.68,0,28.37,12.71,28.37,28.37
	c0,15.68-12.71,28.37-28.37,28.37C25.74,69.68,13.05,56.99,13.05,41.31z M25.24,34.81c8.74-2.65,23.82-2.15,32.96,3.28
	c1.25,0.75,2.89,0.32,3.64-0.93c0.75-1.25,0.34-2.89-0.93-3.64c-10.52-6.25-27.2-6.84-37.21-3.8c-1.4,0.42-2.19,1.9-1.76,3.32
	C22.36,34.45,23.84,35.24,25.24,34.81z M54.86,46.86c1.03,0.65,2.41,0.3,3.04-0.73c0.65-1.03,0.3-2.41-0.73-3.04
	c-8.76-5.38-21.57-6.9-31.87-3.76c-1.17,0.36-1.82,1.6-1.48,2.75c0.36,1.17,1.6,1.82,2.75,1.48C35.62,40.82,47.25,42.18,54.86,46.86
	z M54.44,53.86c-0.51,0.83-1.6,1.09-2.43,0.59c-6.66-4.07-15.06-5-24.93-2.73c-0.95,0.22-1.9-0.38-2.12-1.34
	c-0.22-0.95,0.38-1.9,1.34-2.12c10.81-2.47,20.07-1.42,27.56,3.16C54.68,51.93,54.94,53.03,54.44,53.86z"/>
</svg>
